<svg xmlns="http://www.w3.org/2000/svg" xmlns:xlink="http://www.w3.org/1999/xlink" preserveAspectRatio="xMidYMid" width="17.813" height="14.19" viewBox="0 0 17.813 14.19">
  <defs>
    <style>
      .cls-1 {
        fill: #000;
        filter: url(#color-overlay-1);
        fill-rule: evenodd;
      }
    </style>

    <filter id="color-overlay-1" filterUnits="userSpaceOnUse">
      <feFlood flood-color="#d22856"/>
      <feComposite operator="in" in2="SourceGraphic"/>
      <feBlend in2="SourceGraphic" result="solidFill"/>
    </filter>
  </defs>
  <path d="M17.822,1.673 C17.167,1.958 16.463,2.150 15.724,2.237 C16.478,1.794 17.057,1.091 17.330,0.253 C16.624,0.665 15.842,0.963 15.010,1.124 C14.344,0.427 13.394,-0.008 12.343,-0.008 C10.326,-0.008 8.689,1.597 8.689,3.576 C8.689,3.857 8.722,4.131 8.784,4.393 C5.748,4.244 3.056,2.817 1.254,0.648 C0.939,1.178 0.759,1.793 0.759,2.450 C0.759,3.694 1.404,4.791 2.384,5.434 C1.785,5.415 1.222,5.254 0.729,4.985 C0.729,5.000 0.729,5.015 0.729,5.030 C0.729,6.767 1.988,8.216 3.660,8.545 C3.353,8.627 3.030,8.671 2.697,8.671 C2.462,8.671 2.233,8.649 2.010,8.607 C2.475,10.031 3.824,11.067 5.423,11.096 C4.172,12.057 2.597,12.631 0.885,12.631 C0.590,12.631 0.299,12.614 0.014,12.581 C1.630,13.598 3.551,14.191 5.614,14.191 C12.335,14.191 16.010,8.729 16.010,3.992 C16.010,3.837 16.006,3.682 15.999,3.528 C16.713,3.022 17.332,2.391 17.822,1.673 Z" class="cls-1"/>
</svg>
